<?xml version="1.0" encoding="utf-8"?>
<!-- Generator: Adobe Illustrator 26.2.1, SVG Export Plug-In . SVG Version: 6.00 Build 0)  -->
<svg version="1.1" id="Layer_1" xmlns="http://www.w3.org/2000/svg" xmlns:xlink="http://www.w3.org/1999/xlink" x="0px" y="0px"
	 viewBox="0 0 288 1366" style="enable-background:new 0 0 288 1366;" xml:space="preserve">
<style type="text/css">
	.st0{fill:#F2CB1F;}
	.st1{fill:#DEBA1C;}
	.st2{fill:#D9B61C;}
	.st3{fill:#DFBB1C;}
	.st4{fill:#020100;}
	.st5{fill:#030200;}
	.st6{fill:#040300;}
	.st7{fill:#080601;}
</style>
<path class="st0" d="M163.2,631.9c10.8-2.8,21.6-5.6,32.3-8.3c0.4-0.1,1,0,1.3,0.3c4.4,3.8,8.7,7.7,13,11.5c0.8,0.7,0.7,1.5,0.7,2.4
	c0.1,4.5,0.1,9.1,0.2,13.6c0.1,4.6,0.2,9.1,0.3,13.7c0.1,6.3,0.2,12.6,0.3,18.9c0.2,11.9,0.5,23.8,0.7,35.7
	c0.1,3.8,0.1,7.5,0.2,11.3c0,0.4,0.3,0.9,0.3,1.3c0,0.3-0.3,0.8-0.5,0.9c-4.4,1.9-8.8,3.8-13.2,5.8c-1.3,0.6-2.5,0.5-3.8,0.3
	c-4.1-0.4-8.2-0.8-12.2-1.2c-4.6-0.5-9.3-0.9-13.9-1.4c-2.3-0.2-4.5-0.5-6.8-0.6c-1.1-0.1-1.2-0.5-1.2-1.4c0-7.1,0.1-14.3,0.1-21.4
	c0.1-25.3,0.2-50.7,0.2-76c0-1.1-0.2-2.2-0.2-3.2c0-1.6,0-1.6,1.5-1.9C162.7,632.1,162.9,632,163.2,631.9 M197.5,699.1
	c0.1,13,0.3,26.1,0.4,39.2c4.4-1.9,8.7-3.8,12.9-5.7c0.3-0.1,0.5-0.7,0.6-1.1c0.1-1.3,0-2.7,0-4c-0.3-18.3-0.7-36.5-1-54.8
	c-0.2-11.7-0.4-23.4-0.6-35.1c0-0.8-0.3-1.4-0.9-1.9c-3.9-3.5-7.9-7.1-11.8-10.7c-0.1-0.1-0.3-0.2-0.5-0.4
	C196.9,649.5,197.2,674.2,197.5,699.1z"/>
<path class="st0" d="M143.2,659.6c0.2,24.6,0.3,49.1,0.5,73.6c-2.3-0.3-4.3-0.6-6.3-0.9c-3.5-0.5-7-0.9-10.5-1.4
	c-2.9-0.4-5.9-0.8-8.9-1.1c-0.5-0.1-1-0.1-1.5,0c-0.8,0.1-1.1-0.3-1.1-1c-0.1-5.3-0.3-10.5-0.4-15.8c-0.2-9.5-0.4-19-0.7-28.5
	c-0.1-5.6-0.2-11.2-0.4-16.7c-0.2-7.2-0.5-14.5-0.6-21.7c0-0.4,0.5-1,0.9-1.1c1.2-0.3,2.5-0.3,3.7-0.6c7.8-2,15.5-4,23.3-6.1
	c0.4-0.1,0.7-0.3,1.1-0.4c0.3,0,0.7,0.1,0.9,0.3c0.2,0.3,0.2,0.7,0.2,1.1c0,0.3-0.1,0.7-0.1,1C143.2,646.7,143.2,653.1,143.2,659.6z
	"/>
<path class="st0" d="M99.8,702c0.1,7.7,0.2,15.4,0.3,23c0,0.4,0,0.8,0,1.2c0.1,1.7-0.1,1.8-1.7,1.6c-6.9-0.9-13.8-1.8-20.7-2.7
	c-0.8-0.1-1.6-0.2-2.4-0.3c-0.6,0-0.8-0.3-0.8-0.9c0.2-14.3,0.4-28.6,0.5-42.9c0.1-8.4,0.2-16.8,0.3-25.2c0-0.8,0.3-1.1,1-1.3
	c7-1.7,14-3.5,21-5.2c1.4-0.3,1.7-0.1,1.7,1.4c0.2,11.1,0.3,22.3,0.5,33.4C99.5,690,99.6,695.9,99.8,702z"/>
<path class="st0" d="M62,694.2c-0.1,8.8-0.2,17.5-0.3,26.2c0,0.6,0.1,1.3,0,1.9c-0.1,0.3-0.6,0.8-0.9,0.7c-3.6-0.4-7.1-0.9-10.6-1.3
	c-1.9-0.2-3.9-0.3-5.8-0.5c-0.2,0-0.6-0.5-0.6-0.7c0-18.6,0.1-37.3,0.1-55.9c0-2.2,0-2.2,2.2-2.8c4.9-1.2,9.9-2.4,14.8-3.6
	c1.6-0.4,1.6-0.4,1.6,1.2C62.3,671,62.1,682.5,62,694.2z"/>
<path class="st1" d="M222.4,724.3c-0.2-7.4-0.4-14.7-0.7-22c-0.2-6.6-0.4-13.3-0.6-19.9c-0.2-6.7-0.4-13.5-0.6-20.2
	c-0.2-5.3-0.4-10.5-0.6-15.8c0-0.4,0.1-0.8,0.2-1.4c1.3,1.1,2.3,2,3.4,2.9c1.4,1.2,2.8,2.5,4.3,3.7c0.7,0.6,1,1.2,1,2.1
	c0,2.4,0.2,4.8,0.3,7.1c0.2,6,0.3,12,0.5,18c0.2,6.4,0.4,12.8,0.6,19.3c0.2,6.3,0.4,12.6,0.6,18.8c0.1,2.2,0.1,4.4,0.2,6.5
	c0,0.6-0.2,0.9-0.7,1.1c-2.2,0.9-4.3,1.8-6.5,2.7c-1.1,0.4-1.3,0.3-1.4-0.9C222.4,725.8,222.4,725.1,222.4,724.3 M228.3,666
	c-0.1-3.5-0.2-7.1-0.2-10.6c0-1.6-0.5-2.8-1.8-3.7c-1.4-1-2.6-2.3-3.9-3.5c-0.5-0.5-1.1-1-1.8-1.6c0.9,26.8,1.8,53.4,2.7,80.2
	c2.2-1,4.3-1.9,6.4-2.9c0.2-0.1,0.3-0.6,0.3-0.9c0-2.1-0.1-4.2-0.2-6.3c-0.2-5.8-0.3-11.6-0.5-17.4C229,688.3,228.7,677.3,228.3,666
	z"/>
<path class="st2" d="M241.1,689.3c0.1,5,0.1,9.9,0.2,14.9c0.1,4.9,0.3,9.8,0.4,14.6c0,0.3-0.2,0.7-0.4,0.8c-1.4,0.7-2.8,1.3-4.2,1.9
	c-0.8,0.3-1.2,0.1-1.2-0.8c-0.1-2.6-0.1-5.1-0.2-7.7c-0.1-5.5-0.2-11.1-0.3-16.6c-0.1-6.9-0.3-13.8-0.4-20.6
	c-0.1-3.3-0.1-6.6-0.2-9.9c0-1.5-0.1-2.9-0.2-4.4c0-0.5-0.1-1.1,0-1.6c0.1-0.3,0.3-0.7,0.5-1c0.1-0.1,0.6,0.2,0.8,0.4
	c1.2,1,2.5,2.1,3.6,3.2c0.4,0.4,0.8,1.1,0.8,1.7c0.2,6.6,0.3,13.3,0.5,19.9C240.9,685.8,241,687.5,241.1,689.3 M240.6,701.9
	c-0.1-5.6-0.3-11.2-0.4-16.7c-0.2-6.9-0.3-13.8-0.5-20.7c0-0.3,0-0.7-0.1-0.8c-1.3-1.2-2.7-2.4-4.3-3.7c0.5,20.5,0.9,40.7,1.4,61.1
	c1.5-0.7,2.8-1.3,4.1-2c0.2-0.1,0.3-0.4,0.3-0.6C240.9,712.9,240.8,707.5,240.6,701.9z"/>
<path class="st3" d="M244.3,715.7c0-1.4-0.1-2.8-0.1-4.1c-0.1-8-0.2-16-0.3-24c-0.1-6.7-0.2-13.4-0.3-20.1c0-0.3,0.2-0.7,0.3-1
	c0.3,0.2,0.6,0.3,0.9,0.5c0.1,0,0.1,0.1,0.2,0.1c2.6,1.7,3,4.1,3,7c-0.1,6.8,0.1,13.7,0.2,20.5c0.1,5.4,0.1,10.9,0.2,16.3
	c0,1.4,0,2.7,0.1,4.1c0,0.8-0.3,1.3-1,1.6c-0.6,0.3-1.3,0.6-1.9,0.9c-1,0.4-1.2,0.3-1.2-0.7C244.3,716.5,244.3,716.2,244.3,715.7
	 M244.9,707.8c0,3,0,5.9,0,9.1c0.6-0.2,1-0.5,1.3-0.5c1.2-0.2,1.3-0.9,1.3-1.9c-0.1-5.9-0.2-11.9-0.2-17.8
	c-0.1-8.2-0.3-16.4-0.3-24.6c0-1.9-1.2-2.7-2.4-3.7c-0.1,0.1-0.1,0.2-0.1,0.3C244.6,681.6,244.8,694.6,244.9,707.8z"/>
<path class="st4" d="M197.5,699c-0.3-24.8-0.6-49.5-0.9-74.3c0.2,0.2,0.4,0.3,0.5,0.4c3.9,3.6,7.8,7.1,11.8,10.7
	c0.6,0.5,0.9,1.1,0.9,1.9c0.2,11.7,0.4,23.4,0.6,35.1c0.3,18.3,0.7,36.5,1,54.8c0,1.3,0.1,2.7,0,4c0,0.4-0.3,1-0.6,1.1
	c-4.2,1.9-8.5,3.7-12.9,5.7C197.8,725.2,197.7,712.2,197.5,699z"/>
<path class="st5" d="M228.3,666.1c0.3,11.1,0.7,22.1,1,33.2c0.2,5.8,0.3,11.6,0.5,17.4c0.1,2.1,0.1,4.2,0.2,6.3
	c0,0.3-0.1,0.8-0.3,0.9c-2.1,1-4.2,1.9-6.4,2.9c-0.9-26.8-1.8-53.4-2.7-80.2c0.7,0.6,1.2,1.1,1.8,1.6c1.3,1.2,2.5,2.4,3.9,3.5
	c1.3,1,1.8,2.2,1.8,3.7C228.1,658.9,228.2,662.5,228.3,666.1z"/>
<path class="st6" d="M240.6,702c0.2,5.5,0.4,10.9,0.5,16.3c0,0.2-0.2,0.6-0.3,0.6c-1.3,0.7-2.6,1.3-4.1,2
	c-0.5-20.3-0.9-40.5-1.4-61.1c1.6,1.4,3,2.5,4.3,3.7c0.2,0.1,0.1,0.5,0.1,0.8c0.2,6.9,0.3,13.8,0.5,20.7
	C240.3,690.7,240.4,696.3,240.6,702z"/>
<path class="st7" d="M244.9,707.7c-0.1-13.1-0.2-26.1-0.4-39.2c0-0.1,0.1-0.1,0.1-0.3c1.2,1,2.4,1.8,2.4,3.7
	c0,8.2,0.2,16.4,0.3,24.6c0.1,5.9,0.1,11.9,0.2,17.8c0,1-0.1,1.7-1.3,1.9c-0.4,0.1-0.7,0.3-1.3,0.5
	C244.9,713.7,244.9,710.8,244.9,707.7z"/>
</svg>
